<svg width="24" height="24" viewBox="0 0 24 24" fill="none" xmlns="http://www.w3.org/2000/svg">
<path d="M4 9.16672H20V19.6259H4V9.16672Z" fill="#C4CBD2"/>
<path d="M4 11.8019H20V22.6664H4V11.8019Z" fill="#091440"/>
<path d="M5.51387 7.86587V10.4999H8.10587V7.86587C8.1046 5.69571 9.86105 3.93449 12.0312 3.92987H12.0419C14.212 3.9286 15.9733 5.68505 15.9779 7.8552V10.4952H18.5699V7.86086C18.5658 4.25725 15.6455 1.33697 12.0419 1.33286C8.43704 1.33873 5.51698 4.26103 5.51387 7.86587Z" fill="#091440"/>
<path d="M12.0419 13.842C9.62717 13.8211 7.39448 15.1227 6.22293 17.2342C7.42495 19.3157 9.63834 20.606 12.0419 20.6265C14.4541 20.638 16.6823 19.339 17.8608 17.2342C16.6586 15.153 14.4453 13.8627 12.0419 13.842Z" fill="#C4CBD2"/>
<path d="M12.0421 17.2274L13.855 15.3768C12.9733 14.5138 11.6054 14.3922 10.5852 15.0859C9.56497 15.7797 9.1753 17.0965 9.65369 18.2338C10.1321 19.371 11.3459 20.0133 12.5553 19.7692C13.7646 19.5251 14.6342 18.4622 14.634 17.2284V17.2274L12.0421 17.2274Z" fill="#091440"/>
</svg>
