<svg width="24" height="24" viewBox="0 0 24 24" fill="none" xmlns="http://www.w3.org/2000/svg">
<path d="M1.66934 1.66455H22.3355V20.3312H1.66934V1.66455Z" fill="#8997A5"/>
<rect x="1.66934" y="4.3418" width="20.6667" height="17.9952" fill="#E6EAED"/>
<path d="M18.9973 19.0031C19.3658 19.0031 19.6645 18.7044 19.6645 18.3359C19.6645 17.9674 19.3658 17.6687 18.9973 17.6687C18.6289 17.6687 18.3301 17.9674 18.3301 18.3359C18.3301 18.7044 18.6289 19.0031 18.9973 19.0031Z" fill="#8997A5"/>
<path d="M16.3355 19.0031C16.704 19.0031 17.0027 18.7044 17.0027 18.3359C17.0027 17.9674 16.704 17.6687 16.3355 17.6687C15.967 17.6687 15.6683 17.9674 15.6683 18.3359C15.6665 18.7024 15.962 19.001 16.3285 19.0031H16.3355Z" fill="#8997A5"/>
<path d="M13.6693 19.0031C14.0378 19.0031 14.3365 18.7044 14.3365 18.3359C14.3365 17.9674 14.0378 17.6687 13.6693 17.6687C13.3009 17.6687 13.0021 17.9674 13.0021 18.3359C13.0012 18.5119 13.0701 18.681 13.1938 18.8061C13.3176 18.9313 13.4859 19.0021 13.6619 19.0031H13.6693Z" fill="#8997A5"/>
<rect x="4.33548" y="17.6699" width="6.6672" height="1.33333" fill="#8997A5"/>
<path d="M18.9973 5.66406H17.664V14.9974H19.6693V5.66406L18.9973 5.66406Z" fill="#8997A5"/>
<path d="M15.6635 6.99731H14.3301V14.9973H16.3301V6.99731H15.6635Z" fill="#8997A5"/>
<path d="M12.3301 8.33057H10.9968V14.9972H13.0021V8.33057H12.3301Z" fill="#8997A5"/>
<path d="M8.99627 7.66455H7.66293V14.9979H9.66347V7.66455H8.99627Z" fill="#8997A5"/>
<path d="M5.66881 9.66943H4.33548V15.0028H6.33601V9.66943H5.66881Z" fill="#8997A5"/>
</svg>
