<svg width="24" height="24" viewBox="0 0 24 24" fill="none" xmlns="http://www.w3.org/2000/svg">
<path d="M4.01013 5.31681V5.30561C4.00986 5.0811 4.038 4.85746 4.09386 4.64001H1.33333V5.97335H4.08906C4.03669 5.76223 4.01019 5.54553 4.01013 5.32801V5.31681Z" fill="#091440"/>
<path d="M9.3408 5.30561V5.32801C9.34074 5.54553 9.31424 5.76223 9.26186 5.97335H22.6667V4.64001H9.25706C9.31293 4.85746 9.34106 5.0811 9.3408 5.30561Z" fill="#091440"/>
<path d="M20.0091 11.9733C20.0091 11.9771 20.0091 11.9808 20.0091 11.9845C20.0091 11.9883 20.0091 11.992 20.0091 11.9957C20.0089 12.2129 19.9822 12.4293 19.9296 12.64H22.6667V11.3067H19.9248C19.9809 11.5245 20.0092 11.7485 20.0091 11.9733Z" fill="#091440"/>
<path d="M14.6779 11.9845V11.9733C14.6778 11.7485 14.706 11.5245 14.7616 11.3067H1.33333V12.64H14.7568C14.7044 12.4293 14.6779 12.2129 14.6779 11.9957V11.9845Z" fill="#091440"/>
<path d="M4.01013 18.6512V18.64C4.00982 18.4151 4.03795 18.1911 4.09386 17.9733H1.33333V19.3067H4.08906C4.03666 19.0959 4.01015 18.8796 4.01013 18.6624V18.6512Z" fill="#091440"/>
<path d="M9.3408 18.64V18.6624C9.34078 18.8796 9.31427 19.0959 9.26186 19.3067H22.6667V17.9733H9.25706C9.31297 18.1911 9.34111 18.4151 9.3408 18.64Z" fill="#091440"/>
<path d="M9.3408 18.6512C9.29527 17.212 8.1154 16.0688 6.67547 16.0688C5.23553 16.0688 4.05566 17.212 4.01013 18.6512V18.6624C4.01015 18.8796 4.03666 19.0959 4.08907 19.3067L4.09387 19.3291C4.39841 20.5057 5.46005 21.3276 6.67547 21.3276C7.89088 21.3276 8.95253 20.5057 9.25707 19.3291L9.26187 19.3067C9.31427 19.0959 9.34078 18.8796 9.3408 18.6624V18.6512Z" fill="#C4CBD2"/>
<path d="M20.0085 11.9845C20.0085 10.5118 18.8146 9.31787 17.3419 9.31787C15.8691 9.31787 14.6752 10.5118 14.6752 11.9845V11.9957C14.6761 12.213 14.7035 12.4294 14.7568 12.64L14.7616 12.6624C15.0661 13.839 16.1278 14.6609 17.3432 14.6609C18.5586 14.6609 19.6203 13.839 19.9248 12.6624C19.9248 12.6549 19.928 12.6475 19.9296 12.64C19.9822 12.4293 20.0089 12.2129 20.0091 11.9957C20.0091 11.992 20.0085 11.9883 20.0085 11.9845Z" fill="#C4CBD2"/>
<path d="M9.3408 5.31679C9.29527 3.87757 8.1154 2.73444 6.67547 2.73444C5.23553 2.73444 4.05566 3.87757 4.01013 5.31679V5.32799C4.01019 5.5455 4.03669 5.7622 4.08907 5.97332C4.08907 5.98079 4.09227 5.98825 4.0944 5.99572C4.39968 7.17136 5.46084 7.99216 6.67547 7.99216C7.89009 7.99216 8.95125 7.17136 9.25653 5.99572C9.25653 5.98825 9.25973 5.98079 9.26187 5.97332C9.31424 5.7622 9.34074 5.5455 9.3408 5.32799V5.31679Z" fill="#C4CBD2"/>
</svg>
