<svg width="280" height="120" viewBox="0 0 280 120" fill="none" xmlns="http://www.w3.org/2000/svg">
<path fill-rule="evenodd" clip-rule="evenodd" d="M188.302 32.1132L140 4.22643L91.699 32.1132V87.8867L140 115.773L188.302 87.8867V32.1132ZM135.001 18.6598L106.699 34.9998L135.001 51.3398V18.6598ZM101.699 43.6599V76.3401L130.001 60L101.699 43.6599ZM106.699 85.0002L135.001 101.34V68.6602L106.699 85.0002ZM145.001 101.339L173.302 84.9998L145.001 68.6604V101.339ZM178.302 76.3394V43.6606L150.001 60L178.302 76.3394ZM173.302 35.0002L145.001 18.6606V51.3397L173.302 35.0002Z" fill="#FFFFFF" fill-opacity="0.38"/>
<path d="M140 20C145.523 20 150 15.5228 150 10C150 4.47715 145.523 0 140 0C134.478 0 130 4.47715 130 10C130 15.5228 134.478 20 140 20Z" fill="#FFFFFF" fill-opacity="0.87"/>
<path d="M106.699 35C106.699 40.5228 102.222 45 96.6991 45C91.1762 45 86.6991 40.5228 86.6991 35C86.6991 29.4772 91.1762 25 96.6991 25C102.222 25 106.699 29.4772 106.699 35Z" fill="#FFFFFF" fill-opacity="0.87"/>
<path d="M193.302 85C193.302 90.5229 188.825 95 183.302 95C177.779 95 173.302 90.5229 173.302 85C173.302 79.4771 177.779 75 183.302 75C188.825 75 193.302 79.4771 193.302 85Z" fill="#FFFFFF" fill-opacity="0.87"/>
<path d="M150 110C150 115.523 145.523 120 140 120C134.478 120 130 115.523 130 110C130 104.477 134.478 100 140 100C145.523 100 150 104.477 150 110Z" fill="#FFFFFF" fill-opacity="0.87"/>
<path d="M96.6991 95C102.222 95 106.699 90.5229 106.699 85C106.699 79.4771 102.222 75 96.6991 75C91.1762 75 86.6991 79.4771 86.6991 85C86.6991 90.5229 91.1762 95 96.6991 95Z" fill="#FFFFFF" fill-opacity="0.87"/>
<path d="M193.302 35C193.302 40.5228 188.825 45 183.302 45C177.779 45 173.302 40.5228 173.302 35C173.302 29.4772 177.779 25 183.302 25C188.825 25 193.302 29.4772 193.302 35Z" fill="#FFFFFF" fill-opacity="0.87"/>
<path d="M140 70C145.523 70 150 65.5229 150 60C150 54.4772 145.523 50 140 50C134.478 50 130 54.4772 130 60C130 65.5229 134.478 70 140 70Z" fill="#FFFFFF" fill-opacity="0.87"/>
<rect x="2.66675" y="57.3354" width="34.6667" height="18.6613" fill="#FFFFFF" fill-opacity="0.38"/>
<rect x="10.6667" y="44.0022" width="34.6667" height="18.6613" fill="#FFFFFF" fill-opacity="0.87"/>
<path fill-rule="evenodd" clip-rule="evenodd" d="M37.8097 48.47C37.7297 48.47 37.6547 48.45 37.5797 48.415C35.6647 47.425 33.9997 47 32.0097 47C30.0247 47 28.1547 47.475 26.4397 48.41C26.1947 48.54 25.8947 48.455 25.7597 48.21C25.6297 47.965 25.7147 47.665 25.9597 47.53C27.8247 46.515 29.8597 46 32.0097 46C34.1397 46 35.9997 46.47 38.0397 47.525C38.2847 47.65 38.3797 47.955 38.2547 48.2C38.1647 48.37 37.9897 48.47 37.8097 48.47ZM23.5003 53.72C23.4003 53.72 23.3003 53.69 23.2103 53.63C22.9853 53.47 22.9303 53.16 23.0903 52.935C24.0803 51.535 25.3453 50.435 26.8453 49.66C29.9903 48.035 34.0103 48.03 37.1603 49.65C38.6553 50.42 39.9153 51.51 40.9103 52.9C41.0703 53.125 41.0203 53.435 40.7953 53.595C40.5703 53.755 40.2553 53.705 40.0953 53.48C39.1953 52.22 38.0553 51.23 36.7053 50.54C33.8353 49.065 30.1703 49.07 27.3053 50.55C25.9503 51.25 24.8053 52.245 23.9103 53.515C23.8103 53.65 23.6553 53.72 23.5003 53.72ZM29.4004 65.635C29.5004 65.735 29.6254 65.785 29.7554 65.785C29.8804 65.785 30.0104 65.74 30.1004 65.635C30.3004 65.445 30.3004 65.125 30.1054 64.93C29.3354 64.155 28.9054 63.66 28.2604 62.51C27.6554 61.425 27.3354 60.095 27.3354 58.655C27.3354 56.235 29.4304 54.265 32.0004 54.265C34.5754 54.265 36.6654 56.235 36.6654 58.655C36.6654 58.93 36.8904 59.155 37.1654 59.155C37.4404 59.155 37.6654 58.93 37.6654 58.655C37.6654 55.68 35.1254 53.265 32.0004 53.265C28.8754 53.265 26.3354 55.685 26.3354 58.655C26.3354 60.265 26.7004 61.77 27.3904 63C28.0654 64.205 28.5354 64.76 29.4004 65.635ZM36.9198 63.935C35.7298 63.935 34.6848 63.635 33.8198 63.05C32.3348 62.04 31.4448 60.4 31.4448 58.66C31.4448 58.385 31.6698 58.16 31.9448 58.16C32.2198 58.16 32.4448 58.385 32.4448 58.66C32.4448 60.065 33.1698 61.395 34.3848 62.22C35.0898 62.7 35.9198 62.935 36.9198 62.935C37.1598 62.935 37.5648 62.91 37.9648 62.84C38.2348 62.79 38.4948 62.975 38.5448 63.245C38.5948 63.515 38.4098 63.775 38.1398 63.825C37.5548 63.93 37.0598 63.935 36.9198 63.935ZM34.774 65.98C34.814 65.995 34.859 66 34.904 66C35.124 66 35.324 65.855 35.384 65.635C35.459 65.37 35.299 65.095 35.034 65.02C33.624 64.635 32.704 64.115 31.759 63.175C30.554 61.975 29.889 60.37 29.889 58.665C29.889 57.59 30.824 56.72 31.969 56.72C33.114 56.72 34.049 57.595 34.049 58.665C34.049 60.29 35.434 61.61 37.129 61.61C38.824 61.61 40.209 60.29 40.209 58.665C40.209 54.345 36.509 50.83 31.964 50.83C28.739 50.83 25.789 52.635 24.454 55.425C23.999 56.37 23.769 57.46 23.769 58.66C23.769 60.01 24.009 61.3 24.499 62.615C24.599 62.875 24.884 63.005 25.144 62.91C25.404 62.81 25.534 62.525 25.439 62.265C24.844 60.67 24.774 59.44 24.774 58.66C24.774 57.61 24.969 56.665 25.359 55.855C26.529 53.405 29.124 51.825 31.969 51.825C35.964 51.825 39.214 54.89 39.214 58.66C39.214 59.735 38.279 60.605 37.134 60.605C35.989 60.605 35.054 59.73 35.054 58.66C35.054 57.035 33.674 55.715 31.974 55.715C30.274 55.715 28.894 57.035 28.894 58.66C28.894 60.635 29.664 62.49 31.059 63.88C32.139 64.955 33.179 65.545 34.774 65.98Z" fill="white"/>
<path fill-rule="evenodd" clip-rule="evenodd" d="M15.8732 62.98C15.8199 62.98 15.7699 62.9667 15.7199 62.9433C14.4432 62.2833 13.3332 62 12.0065 62C10.6832 62 9.43653 62.3167 8.29319 62.94C8.12986 63.0267 7.92986 62.97 7.83986 62.8067C7.75319 62.6433 7.80986 62.4433 7.97319 62.3533C9.21653 61.6767 10.5732 61.3333 12.0065 61.3333C13.4265 61.3333 14.6665 61.6467 16.0265 62.35C16.1899 62.4333 16.2532 62.6367 16.1699 62.8C16.1099 62.9133 15.9932 62.98 15.8732 62.98ZM6.33341 66.48C6.26675 66.48 6.20008 66.46 6.14008 66.42C5.99008 66.3133 5.95341 66.1067 6.06008 65.9567C6.72008 65.0233 7.56341 64.29 8.56341 63.7733C10.6601 62.69 13.3401 62.6867 15.4401 63.7667C16.4367 64.28 17.2767 65.0067 17.9401 65.9333C18.0467 66.0833 18.0134 66.29 17.8634 66.3967C17.7134 66.5033 17.5034 66.47 17.3967 66.32C16.7967 65.48 16.0367 64.82 15.1367 64.36C13.2234 63.3767 10.7801 63.38 8.87008 64.3667C7.96675 64.8333 7.20341 65.4967 6.60675 66.3433C6.54008 66.4333 6.43675 66.48 6.33341 66.48ZM10.267 74.4233C10.3337 74.49 10.417 74.5233 10.5037 74.5233C10.587 74.5233 10.6737 74.4933 10.7337 74.4233C10.867 74.2967 10.867 74.0833 10.737 73.9533C10.2237 73.4367 9.93703 73.1067 9.50703 72.34C9.1037 71.6167 8.89036 70.73 8.89036 69.77C8.89036 68.1567 10.287 66.8433 12.0004 66.8433C13.717 66.8433 15.1104 68.1567 15.1104 69.77C15.1104 69.9533 15.2604 70.1033 15.4437 70.1033C15.627 70.1033 15.777 69.9533 15.777 69.77C15.777 67.7867 14.0837 66.1767 12.0004 66.1767C9.91703 66.1767 8.2237 67.79 8.2237 69.77C8.2237 70.8433 8.46703 71.8467 8.92703 72.6667C9.37703 73.47 9.69036 73.84 10.267 74.4233ZM15.2799 73.29C14.4866 73.29 13.7899 73.09 13.2133 72.7C12.2233 72.0267 11.6299 70.9333 11.6299 69.7733C11.6299 69.59 11.7799 69.44 11.9633 69.44C12.1466 69.44 12.2966 69.59 12.2966 69.7733C12.2966 70.71 12.7799 71.5967 13.5899 72.1467C14.0599 72.4667 14.6133 72.6233 15.2799 72.6233C15.4399 72.6233 15.7099 72.6067 15.9766 72.56C16.1566 72.5267 16.3299 72.65 16.3633 72.83C16.3966 73.01 16.2733 73.1833 16.0933 73.2167C15.7033 73.2867 15.3733 73.29 15.2799 73.29ZM13.8494 74.6534C13.8761 74.6634 13.9061 74.6667 13.9361 74.6667C14.0828 74.6667 14.2161 74.57 14.2561 74.4234C14.3061 74.2467 14.1994 74.0634 14.0228 74.0134C13.0828 73.7567 12.4694 73.41 11.8394 72.7834C11.0361 71.9834 10.5928 70.9134 10.5928 69.7767C10.5928 69.06 11.2161 68.48 11.9794 68.48C12.7428 68.48 13.3661 69.0634 13.3661 69.7767C13.3661 70.86 14.2894 71.74 15.4194 71.74C16.5494 71.74 17.4728 70.86 17.4728 69.7767C17.4728 66.8967 15.0061 64.5534 11.9761 64.5534C9.82609 64.5534 7.85943 65.7567 6.96943 67.6167C6.66609 68.2467 6.51276 68.9734 6.51276 69.7734C6.51276 70.6734 6.67276 71.5334 6.99943 72.41C7.06609 72.5834 7.25609 72.67 7.42943 72.6067C7.60276 72.54 7.68943 72.35 7.62609 72.1767C7.22943 71.1134 7.18276 70.2934 7.18276 69.7734C7.18276 69.0734 7.31276 68.4434 7.57276 67.9034C8.35276 66.27 10.0828 65.2167 11.9794 65.2167C14.6428 65.2167 16.8094 67.26 16.8094 69.7734C16.8094 70.49 16.1861 71.07 15.4228 71.07C14.6594 71.07 14.0361 70.4867 14.0361 69.7734C14.0361 68.69 13.1161 67.81 11.9828 67.81C10.8494 67.81 9.92943 68.69 9.92943 69.7734C9.92943 71.09 10.4428 72.3267 11.3728 73.2534C12.0928 73.97 12.7861 74.3634 13.8494 74.6534Z" fill="white"/>
<rect x="234.667" y="57.3354" width="34.6667" height="18.6613" fill="#FFFFFF" fill-opacity="0.38"/>
<rect x="242.667" y="44.0022" width="34.6667" height="18.6613" fill="#FFFFFF" fill-opacity="0.87"/>
<path d="M76.3536 60.3536C76.5488 60.1583 76.5488 59.8417 76.3536 59.6464L73.1716 56.4645C72.9763 56.2692 72.6597 56.2692 72.4645 56.4645C72.2692 56.6597 72.2692 56.9763 72.4645 57.1716L75.2929 60L72.4645 62.8284C72.2692 63.0237 72.2692 63.3403 72.4645 63.5355C72.6597 63.7308 72.9763 63.7308 73.1716 63.5355L76.3536 60.3536ZM56 60.5H76V59.5H56V60.5Z" fill="#FFFFFF" fill-opacity="0.60"/>
<path d="M224.354 60.3536C224.549 60.1583 224.549 59.8417 224.354 59.6464L221.172 56.4645C220.976 56.2692 220.66 56.2692 220.464 56.4645C220.269 56.6597 220.269 56.9763 220.464 57.1716L223.293 60L220.464 62.8284C220.269 63.0237 220.269 63.3403 220.464 63.5355C220.66 63.7308 220.976 63.7308 221.172 63.5355L224.354 60.3536ZM204 60.5H224V59.5H204V60.5Z" fill="#FFFFFF" fill-opacity="0.60"/>
</svg>
