<svg width="24" height="24" viewBox="0 0 24 24" fill="none" xmlns="http://www.w3.org/2000/svg">
<path d="M3.37191 2.66675H18.0386C18.775 2.66675 19.3719 3.2637 19.3719 4.00008V6.40008H2.03857V4.00008C2.03857 3.2637 2.63553 2.66675 3.37191 2.66675Z" fill="#C4CBD2"/>
<path d="M3.37191 20H20.7052C21.0589 20 21.398 19.8595 21.6481 19.6095C21.8981 19.3594 22.0386 19.0203 22.0386 18.6667V6.66667C22.0386 5.93029 21.4416 5.33333 20.7052 5.33333H3.37191C2.63553 5.33333 2.03857 4.73638 2.03857 4V18.6667C2.03857 19.403 2.63553 20 3.37191 20Z" fill="#091440"/>
<path d="M18.7051 12.6666C18.7051 14.5075 20.2251 15.9999 22.0384 15.9999V9.33325C20.2251 9.33325 18.7051 10.8256 18.7051 12.6666Z" fill="#C4CBD2"/>
</svg>
