<svg width="24" height="24" viewBox="0 0 24 24" fill="none" xmlns="http://www.w3.org/2000/svg">
<path d="M11.986 1.33269C6.09493 1.33269 1.31931 6.10863 1.31931 11.9997C1.31931 17.8907 6.09493 22.6667 11.986 22.6667H22.6526L19.495 19.5748C21.5188 17.5739 22.6562 14.8454 22.6526 11.9995C22.6526 6.10847 17.877 1.33269 11.986 1.33269Z" fill="#091440"/>
<path d="M11.986 6.66016C9.77359 6.66016 7.97365 8.48 7.97365 10.6667H9.30698C9.30698 9.22666 10.5088 7.99349 11.986 7.99349C12.865 7.99264 13.6886 8.42284 14.19 9.1448C14.5007 9.59022 14.6671 10.1203 14.6667 10.6634V10.6648C14.663 12.1418 13.463 13.3364 11.986 13.3333H11.3067V16H12.64V14.6354C14.6981 14.2908 16.1492 12.427 15.9786 10.3472C15.8081 8.26736 14.0728 6.66488 11.986 6.66016V6.66016Z" fill="#C4CBD2"/>
<path d="M11.3067 17.3333H12.64V18.6667H11.3067V17.3333Z" fill="#C4CBD2"/>
</svg>
