<svg width="24" height="24" viewBox="0 0 24 24" fill="none" xmlns="http://www.w3.org/2000/svg">
<circle cx="7" cy="3" r="1" fill="#091440"/>
<circle cx="17" cy="3" r="1" fill="#091440"/>
<path d="M5 9L19 9V15C19 18.866 15.866 22 12 22C8.13401 22 5 18.866 5 15L5 9Z" fill="#091440"/>
<path fill-rule="evenodd" clip-rule="evenodd" d="M7 7L17 7L19 9L5 9L7 7Z" fill="#C4CBD2"/>
<path d="M7 7C7 4.23858 9.23858 2 12 2C14.7614 2 17 4.23858 17 7L7 7Z" fill="#091440"/>
<rect x="2" y="6" width="2" height="5" fill="#091440"/>
<rect x="2" y="17" width="2" height="5" fill="#091440"/>
<rect x="20" y="6" width="2" height="5" fill="#091440"/>
<rect x="20" y="17" width="2" height="5" fill="#091440"/>
<rect x="2" y="9" width="20" height="2" fill="#091440"/>
<rect x="2" y="13" width="20" height="2" fill="#091440"/>
<rect x="2" y="17" width="20" height="2" fill="#091440"/>
<rect x="11" y="9" width="2" height="13" fill="#C4CBD2"/>
</svg>
