<svg width="24" height="24" viewBox="0 0 24 24" fill="none" xmlns="http://www.w3.org/2000/svg">
<path d="M1.66933 1.66455H22.3355V20.3312H1.66933V1.66455Z" fill="#091440"/>
<rect x="1.66933" y="4.3418" width="20.6667" height="17.9952" fill="#C4CBD2"/>
<path d="M18.9973 19.0033C19.3658 19.0033 19.6645 18.7046 19.6645 18.3361C19.6645 17.9677 19.3658 17.6689 18.9973 17.6689C18.6288 17.6689 18.3301 17.9677 18.3301 18.3361C18.3301 18.7046 18.6288 19.0033 18.9973 19.0033Z" fill="#091440"/>
<path d="M16.3355 19.0033C16.704 19.0033 17.0027 18.7046 17.0027 18.3361C17.0027 17.9677 16.704 17.6689 16.3355 17.6689C15.967 17.6689 15.6683 17.9677 15.6683 18.3361C15.6665 18.7027 15.962 19.0013 16.3285 19.0033H16.3355Z" fill="#091440"/>
<path d="M13.6693 19.0033C14.0378 19.0033 14.3365 18.7046 14.3365 18.3361C14.3365 17.9677 14.0378 17.6689 13.6693 17.6689C13.3008 17.6689 13.0021 17.9677 13.0021 18.3361C13.0011 18.5121 13.0701 18.6813 13.1938 18.8064C13.3175 18.9315 13.4859 19.0024 13.6619 19.0033H13.6693Z" fill="#091440"/>
<rect x="4.33547" y="17.6699" width="6.6672" height="1.33333" fill="#091440"/>
<path d="M18.9973 5.66406H17.664V14.9974H19.6693V5.66406L18.9973 5.66406Z" fill="#091440"/>
<path d="M15.6635 6.99756H14.3301V14.9976H16.3301V6.99756H15.6635Z" fill="#091440"/>
<path d="M12.3301 8.33057H10.9968V14.9972H13.0021V8.33057H12.3301Z" fill="#091440"/>
<path d="M8.99627 7.66455H7.66293V14.9979H9.66347V7.66455H8.99627Z" fill="#091440"/>
<path d="M5.6688 9.66943H4.33547V15.0028H6.336V9.66943H5.6688Z" fill="#091440"/>
</svg>
