<svg width="22" height="18" viewBox="0 0 22 18" fill="none" xmlns="http://www.w3.org/2000/svg">
<path fill-rule="evenodd" clip-rule="evenodd" d="M0.160294 0L4.67684 4.5C1.60559 5.52638 0.160294 7.88017 0.160294 10.8C0.160294 14.7765 3.39569 18 7.38676 18H12.8066L9.19338 14.4H7.38676C5.39123 14.4 3.77353 12.7882 3.77353 10.8C3.77353 8.81178 5.39123 7.2 7.38676 7.2H12.2646L5.03816 0H0.160294ZM21.8397 18L17.3232 13.5C20.3944 12.4736 21.8397 10.1198 21.8397 7.2C21.8397 3.22355 18.6043 0 14.6132 0H9.19338L12.8066 3.6H14.6132C16.6088 3.6 18.2265 5.21177 18.2265 7.2C18.2265 9.18822 16.6088 10.8 14.6132 10.8H9.73537L16.9618 18H21.8397Z" fill="#FFFFFF"/>
</svg>
