<svg width="16" height="16" viewBox="0 0 16 16" fill="none" xmlns="http://www.w3.org/2000/svg">
<path fill-rule="evenodd" clip-rule="evenodd" d="M3 8.0004C3 5.23876 5.2384 3.00001 7.9996 3.00001C9.32582 2.99812 10.5979 3.52579 11.5335 4.46589L13 3.00001V6.75151H9.25151L10.6537 5.34831C9.58152 4.27426 7.96777 3.9525 6.56578 4.53324C5.16378 5.11398 4.25004 6.48269 4.2511 8.0004H3ZM5.34793 10.6517C6.04951 11.3578 7.00429 11.7539 7.9996 11.7519C8.99466 11.7521 9.94896 11.3565 10.6521 10.6524C11.3553 9.94818 11.7496 8.99322 11.7481 7.99799H12.9992C13.0004 10.0207 11.7826 11.8448 9.91425 12.619C8.04586 13.3932 5.89511 12.965 4.46565 11.5341L3 13V9.2485H6.7509L5.34793 10.6517Z" fill="#FFFFFF" fill-opacity="0.87"/>
</svg>
